<svg width="3750" height="3887" viewBox="0 0 3750 3887" fill="none" xmlns="http://www.w3.org/2000/svg">
<g clip-path="url(#clip0_1_37)">
<path d="M3750 1934.62L3456.15 0L391.24 688.032L482.005 1922.96L0 1940.16L285.423 3887L3336.29 3202.25L3265.39 1977.23L3750 1934.62ZM1750.23 1566.21C1773.37 1612.67 1847.5 1646.68 1959.31 1659.36C2486.93 1719.23 2619.51 1929.52 2659.01 2027.82C2729.18 2202.23 2753.06 2523.33 2426.49 2766.61C2271.67 2881.95 2084.77 2948.84 1870.98 2965.53C1823.96 2969.21 1778.29 2971.02 1734.04 2971.02C1622.51 2971.02 1519.98 2959.36 1427.97 2936.22C1308.62 2906.17 1199.47 2838.99 1112.38 2742C1055.17 2678.39 1017.15 2597.8 999.434 2502.56L995.417 2481L1619.11 2340.88L1628.06 2363.06C1676.49 2475.79 2000.28 2517.44 2089.46 2336.47C2110.46 2293.91 2099.42 2252.2 2056.7 2212.59C2011.2 2170.43 1908.33 2152.77 1789.16 2132.34C1671.46 2112.14 1538.03 2089.22 1419.76 2036.03C1095.46 1890.19 1109.1 1585.96 1109.78 1565.76C1111.25 1523.71 1129.98 1286.76 1351.57 1122.14C1485.8 1022.43 1658.44 963.686 1864.7 947.614C2022.69 935.277 2165.97 944.332 2290.69 974.495C2417.55 1005.28 2518.9 1062.72 2591.84 1145.29C2649.73 1210.76 2688.04 1297.35 2705.75 1402.6L2709.31 1423.88L2113.57 1557.72L2109.27 1534.46C2103.44 1502.88 2078.03 1427.45 1968.31 1408.43C1882.3 1393.49 1789.78 1425.07 1757.75 1480.25C1745.42 1501.53 1734.1 1533.73 1750.23 1566.15V1566.21Z" fill="#0056DF"/>
</g>
<defs>
<clipPath id="clip0_1_37">
<rect width="3750" height="3887" fill="white"/>
</clipPath>
</defs>
</svg>
